<?xml version="1.0" standalone="no"?>
<!DOCTYPE svg PUBLIC "-//W3C//DTD SVG 20010904//EN"
 "http://www.w3.org/TR/2001/REC-SVG-20010904/DTD/svg10.dtd">
<svg version="1.0" xmlns="http://www.w3.org/2000/svg"
 width="512.000000pt" height="512.000000pt" viewBox="0 0 512.000000 512.000000"
 preserveAspectRatio="xMidYMid meet">
<metadata>
Created by potrace 1.16, written by Peter Selinger 2001-2019
</metadata>
<g transform="translate(0.000000,512.000000) scale(0.100000,-0.100000)"
fill="#000000" stroke="none">
<path d="M358 5109 c-65 -15 -164 -65 -208 -105 -60 -54 -115 -142 -134 -216
-16 -58 -17 -242 -14 -2323 l3 -2260 22 -41 c30 -56 78 -100 143 -132 l55 -27
1790 -3 c1295 -2 1811 0 1865 8 324 49 594 184 820 410 226 227 364 503 410
821 18 121 8 396 -19 510 -105 455 -413 830 -831 1010 l-85 37 -3 841 -2 841
-160 0 -160 0 0 160 0 160 160 0 160 0 0 160 0 160 -1887 -1 c-1047 -1 -1905
-5 -1925 -10z m3162 -469 l0 -160 -1510 0 c-1016 0 -1525 3 -1558 11 -27 5
-64 23 -83 38 -34 28 -34 30 -34 111 0 81 0 82 34 111 19 16 53 33 75 38 24 5
681 9 1559 10 l1517 1 0 -160z m320 -1119 l0 -638 -192 -6 c-200 -6 -265 -16
-413 -63 -115 -36 -286 -122 -385 -193 l-85 -61 -902 0 -903 0 0 -160 0 -160
755 0 c415 0 755 -3 755 -6 0 -3 -8 -18 -19 -32 -24 -35 -93 -174 -116 -234
l-18 -48 -678 0 -679 0 0 -160 0 -160 640 0 639 0 0 -149 c0 -405 141 -751
423 -1033 l98 -98 -1060 0 -1060 0 0 1920 0 1920 1600 0 1600 0 0 -639z m58
-991 c328 -67 602 -271 766 -571 174 -317 168 -745 -15 -1065 -202 -353 -564
-564 -969 -564 -618 0 -1110 492 -1110 1110 0 424 236 806 618 999 201 102
482 138 710 91z"/>
<path d="M960 3040 l0 -160 1280 0 1280 0 0 160 0 160 -1280 0 -1280 0 0 -160z"/>
<path d="M3520 1920 l0 -320 -320 0 -320 0 0 -160 0 -160 320 0 320 0 0 -320
0 -320 165 0 165 0 0 320 0 320 315 0 315 0 0 160 0 160 -315 0 -315 0 0 320
0 320 -165 0 -165 0 0 -320z"/>
</g>
</svg>
