<?xml version="1.0" standalone="no"?>
<!DOCTYPE svg PUBLIC "-//W3C//DTD SVG 20010904//EN"
 "http://www.w3.org/TR/2001/REC-SVG-20010904/DTD/svg10.dtd">
<svg version="1.0" xmlns="http://www.w3.org/2000/svg"
 width="512.000000pt" height="512.000000pt" viewBox="0 0 512.000000 512.000000"
 preserveAspectRatio="xMidYMid meet">
<metadata>
Created by potrace 1.16, written by Peter Selinger 2001-2019
</metadata>
<g transform="translate(0.000000,512.000000) scale(0.100000,-0.100000)"
fill="#000000" stroke="none">
<path d="M728 4720 c-312 -54 -582 -288 -689 -598 l-34 -97 0 -1465 0 -1465
34 -97 c97 -280 326 -499 608 -580 l78 -23 1445 0 1445 0 90 28 c320 100 564
372 620 692 12 71 15 189 15 626 0 318 -4 548 -10 563 -11 30 -58 56 -101 56
-28 0 -50 -17 -160 -126 l-127 -126 -5 -457 c-3 -380 -6 -464 -19 -502 -55
-161 -163 -273 -324 -335 -47 -18 -106 -19 -1379 -22 -889 -2 -1353 1 -1400 8
-196 29 -369 196 -405 389 -14 73 -14 2669 0 2742 35 191 209 359 400 389 103
16 2657 13 2740 -3 38 -8 78 -10 96 -5 19 5 66 44 127 106 89 91 97 102 97
138 0 53 -22 82 -85 110 -143 63 -29 58 -1590 60 -781 1 -1441 -2 -1467 -6z"/>
<path d="M4425 4507 c-40 -20 -260 -235 -1055 -1031 l-1005 -1006 -420 419
c-231 230 -435 427 -454 436 -19 9 -60 20 -93 22 -105 10 -128 -5 -351 -226
-110 -108 -210 -214 -224 -236 -19 -29 -27 -57 -31 -107 -9 -131 -49 -83 727
-860 383 -383 712 -704 731 -714 49 -26 181 -26 230 0 19 10 612 595 1317
1300 1003 1002 1287 1291 1302 1326 28 61 28 159 0 220 -24 52 -393 427 -449
455 -20 11 -65 20 -105 22 -59 3 -78 0 -120 -20z"/>
</g>
</svg>
